<mxfile host="65bd71144e">
    <diagram id="btHZHbXKZqzGOz-PpkOL" name="第 1 页">
        <mxGraphModel dx="282" dy="421" grid="1" gridSize="10" guides="1" tooltips="1" connect="1" arrows="1" fold="1" page="1" pageScale="1" pageWidth="827" pageHeight="1169" math="0" shadow="0">
            <root>
                <mxCell id="0"/>
                <mxCell id="1" parent="0"/>
                <mxCell id="9" value="200, 300" style="text;html=1;align=center;verticalAlign=middle;resizable=0;points=[];autosize=1;strokeColor=none;fillColor=none;" parent="1" vertex="1">
                    <mxGeometry x="160" y="170" width="70" height="30" as="geometry"/>
                </mxCell>
                <mxCell id="16" value="" style="ellipse;whiteSpace=wrap;html=1;" vertex="1" parent="1">
                    <mxGeometry x="120" y="40" width="120" height="80" as="geometry"/>
                </mxCell>
            </root>
        </mxGraphModel>
    </diagram>
</mxfile>